<svg id="logo" viewBox="0 0 1174 550" fill="none" xmlns="http://www.w3.org/2000/svg">
<path d="M105.106 156.31L191.999 440.768H195.224L282.117 156.31H387.223L256.125 544.69H131.098L0 156.31H105.106Z" fill="white"/>
<path d="M661.086 283.178C658.936 275.213 655.774 268.197 651.6 262.128C647.427 255.933 642.304 250.687 636.233 246.388C630.162 242.09 623.205 238.866 615.363 236.717C607.522 234.441 598.921 233.303 589.561 233.303C570.716 233.303 554.399 237.854 540.613 246.957C526.953 256.06 516.392 269.334 508.929 286.781C501.467 304.102 497.736 325.151 497.736 349.931C497.736 374.837 501.34 396.076 508.55 413.65C515.759 431.223 526.194 444.624 539.854 453.853C553.514 463.082 570.083 467.697 589.561 467.697C606.763 467.697 621.308 464.915 633.197 459.353C645.213 453.663 654.32 445.635 660.517 435.268C666.715 424.901 669.814 412.701 669.814 398.668L687.268 400.754H592.787V332.295H760.311V383.687C760.311 418.454 752.912 448.227 738.114 473.007C723.442 497.786 703.205 516.813 677.403 530.088C651.727 543.363 622.193 550 588.802 550C551.743 550 519.174 541.972 491.095 525.916C463.017 509.86 441.135 486.977 425.452 457.267C409.768 427.43 401.926 392.031 401.926 351.069C401.926 319.209 406.669 290.953 416.155 266.3C425.641 241.521 438.859 220.534 455.807 203.34C472.882 186.146 492.613 173.124 515 164.275C537.514 155.425 561.735 151 587.664 151C610.178 151 631.11 154.224 650.462 160.671C669.94 167.119 687.142 176.222 702.066 187.979C717.118 199.737 729.323 213.707 738.683 229.89C748.042 246.072 753.861 263.835 756.137 283.178H661.086Z" fill="white"/>
<path d="M887.709 544.69H786.777L917.875 156.31H1042.9L1174 544.69H1073.07L981.812 254.163H978.776L887.709 544.69Z" fill="white"/>
<path d="M148.631 357.762C158.772 337.101 150.211 312.034 129.55 301.893C108.888 291.752 83.8215 300.313 73.6805 320.974C63.5394 341.636 72.1008 366.703 92.7621 376.844C113.423 386.985 138.49 378.423 148.631 357.762ZM98.6646 333.237C102.049 326.342 110.404 323.499 117.287 326.877C124.17 330.255 127.031 338.604 123.647 345.499C120.263 352.394 111.908 355.238 105.025 351.86C98.1417 348.481 95.2804 340.132 98.6646 333.237Z" fill="black"/>
<path d="M186.794 469.5C196.935 448.839 188.374 423.772 167.712 413.631C147.051 403.49 121.984 412.051 111.843 432.713C101.702 453.374 110.263 478.441 130.925 488.582C151.586 498.723 176.653 490.162 186.794 469.5ZM136.827 444.976C140.211 438.081 148.566 435.237 155.45 438.615C162.333 441.994 165.194 450.343 161.81 457.238C158.426 464.133 150.071 466.976 143.187 463.598C136.304 460.219 133.443 451.87 136.827 444.976Z" fill="black"/>
<path d="M998.43 156.443C997.657 155.455 996.957 154.397 996.455 153.179C993.526 146.076 996.91 137.946 1004.01 135.021C1007.24 133.686 1010.67 133.72 1013.73 134.757C1016.43 132.778 1019.35 131.061 1022.57 129.734C1043.93 120.927 1068.47 131.133 1077.28 152.499C1078.33 155.049 1079.09 157.643 1079.61 160.248C1083.58 161.369 1087.03 164.174 1088.72 168.279C1091.65 175.382 1088.26 183.513 1081.16 186.44C1079.41 187.163 1077.6 187.493 1075.82 187.486C1071.44 196.09 1064.11 203.244 1054.51 207.204C1033.15 216.012 1008.61 205.796 999.804 184.44C995.99 175.187 995.756 165.348 998.43 156.443ZM1049.94 196.117C1056.72 193.319 1061.92 188.297 1065.06 182.243C1064.25 181.231 1063.52 180.14 1063 178.882C1060.49 172.789 1062.65 165.959 1067.79 162.289C1067.42 160.532 1066.9 158.787 1066.19 157.064C1059.91 141.815 1042.39 134.528 1027.14 140.817C1025.45 141.512 1023.88 142.363 1022.39 143.318C1024.8 150.235 1021.47 157.908 1014.61 160.737C1012.91 161.436 1011.16 161.75 1009.42 161.764C1008.07 167.611 1008.42 173.906 1010.88 179.865C1017.17 195.117 1034.69 202.404 1049.94 196.117Z" fill="#121212"/>
<path d="M962 167C962 123.995 996.992 89 1040 89C1083.01 89 1118 123.995 1118 167C1118 210.005 1083.01 245 1040 245C1024.17 245 1009.44 240.225 997.122 232.088C996.768 232.119 996.424 232.194 996.06 232.194C989.24 232.194 983.71 226.926 983.165 220.245C970.083 206.289 962 187.589 962 167ZM1103.54 167C1103.54 131.965 1075.04 103.47 1040 103.47C1004.97 103.47 976.474 131.965 976.474 167C976.474 182.27 981.889 196.291 990.9 207.256C992.483 206.568 994.225 206.177 996.063 206.177C1003.24 206.177 1009.07 212 1009.07 219.184C1009.07 220.229 1008.91 221.226 1008.69 222.196C1017.94 227.468 1028.61 230.517 1040 230.517C1075.04 230.52 1103.54 202.029 1103.54 167Z" fill="#252525"/>
<path d="M992.42 528.929C1011.74 528.527 1027.15 512.889 1026.76 494.076L1026.05 459.953L1061.1 459.223C1080.43 458.82 1095.83 443.183 1095.44 424.37C1095.05 405.556 1079 390.574 1059.68 390.977L1024.63 391.707L1023.92 357.584C1023.53 338.771 1007.48 323.788 988.155 324.191C968.83 324.593 953.422 340.231 953.814 359.044L954.525 393.167L919.473 393.897C900.148 394.3 884.741 409.937 885.132 428.75C885.524 447.563 901.57 462.546 920.895 462.143L955.946 461.413L956.657 495.536C957.049 514.349 973.095 529.332 992.42 528.929ZM920.421 439.395C913.972 439.53 908.631 434.532 908.501 428.265C908.37 421.997 913.498 416.781 919.947 416.646L966.682 415.673C973.143 415.538 978.259 410.334 978.129 404.055L977.181 358.558C977.05 352.291 982.179 347.075 988.627 346.941C995.076 346.807 1000.42 351.804 1000.55 358.072L1001.5 403.569C1001.63 409.847 1006.95 414.834 1013.42 414.699L1060.15 413.726C1066.6 413.591 1071.94 418.589 1072.07 424.856C1072.2 431.124 1067.08 436.339 1060.63 436.474L1013.89 437.447C1007.43 437.582 1002.32 442.786 1002.45 449.064L1003.39 494.561C1003.52 500.829 998.396 506.044 991.947 506.179C985.498 506.313 980.157 501.316 980.027 495.048L979.079 449.552C978.948 443.274 973.62 438.287 967.159 438.422L920.421 439.395Z" fill="url(#paint0_linear_4_31)"/>
<path d="M890.88 39.868L857.872 11.0848C853.514 7.28505 846.988 7.73131 843.188 12.0889L701.457 174.627L750.153 217.089L891.884 54.5512C895.684 50.1937 895.238 43.6678 890.88 39.868Z" fill="#6C63FE"/>
<path d="M694.372 168.558C691.037 172.382 691.442 178.313 695.267 181.647L712.642 196.795L692.536 219.849C661.164 195.384 620.986 181.898 578.231 184.822C486.073 191.124 416.224 271.21 422.525 363.35C428.826 455.489 508.933 525.424 601.092 519.122C693.251 512.82 763.099 432.733 756.799 340.594C753.875 297.848 735.05 259.99 706.53 232.145L726.637 209.092L744.012 224.24C745.87 225.859 748.292 226.721 750.747 226.553C753.202 226.385 755.485 225.202 757.105 223.344L892.323 68.3069C897.66 62.1884 900.313 54.4041 899.761 46.3252C899.208 38.2464 895.52 30.8957 889.4 25.5606L872.244 10.6034C866.124 5.26833 858.338 2.61572 850.258 3.16829C842.177 3.72086 834.825 7.40867 829.489 13.5271L694.372 168.558ZM599.819 500.51C517.889 506.113 446.64 443.997 441.038 362.084C435.437 280.171 497.567 208.934 579.497 203.332C661.427 197.729 732.677 259.844 738.278 341.758C743.88 423.671 681.749 494.907 599.819 500.51ZM860.149 24.5814L877.305 39.5387C879.709 41.6346 881.132 44.4141 881.349 47.5843C881.566 50.7544 880.534 53.7017 878.438 56.1054L749.318 204.15L714.458 173.76L843.578 25.7146C845.675 23.3109 848.455 21.8879 851.626 21.671C854.796 21.4542 857.854 22.5808 860.149 24.5814Z" fill="#252525"/>
<defs>
<linearGradient id="paint0_linear_4_31" x1="990" y1="353" x2="992.42" y2="528.929" gradientUnits="userSpaceOnUse">
<stop stop-color="#A2A2A2" stop-opacity="0"/>
<stop offset="0.0001" stop-color="#A2A2A2" stop-opacity="0"/>
<stop offset="0.28125" stop-opacity="0.12"/>
<stop offset="0.416667" stop-opacity="0.56"/>
<stop offset="1"/>
</linearGradient>
</defs>
</svg>
